<svg width="3291" height="2532" viewBox="0 0 3291 2532" fill="none" xmlns="http://www.w3.org/2000/svg">
<path d="M1526.19 202C1852.48 202 2343.69 309.247 2574.23 551.963C2632.75 614.053 2709 734.47 2709 913.215C2709 1229.31 2469.6 1712.86 2207.15 1995.09C2070.6 2139.97 1854.25 2330 1561.65 2330C1276.15 2330 1058.03 2123.03 995.96 2057.18C754.787 1799.41 581 1409.94 581 1044.92C581 815.376 643.067 614.053 799.12 446.598C944.533 290.431 1194.57 202 1526.19 202ZM1930.51 1460.74C2040.45 1344.08 2070.6 1199.21 2070.6 1120.18C2070.6 1061.85 2056.41 977.186 1989.03 905.689C1884.4 794.679 1770.91 764.575 1645 764.575C1487.17 764.575 1380.77 817.257 1309.84 892.518C1254.87 950.845 1206.99 1043.04 1206.99 1172.86C1206.99 1302.69 1270.83 1426.87 1341.76 1502.13C1407.37 1571.75 1508.45 1622.55 1613.08 1622.55C1717.71 1622.55 1820.56 1577.39 1930.51 1460.74Z" fill="#5952FF"/>
</svg>
